<?xml version="1.0" encoding="UTF-8"?>
<svg width="47px" height="47px" viewBox="0 0 47 47" version="1.1" xmlns="http://www.w3.org/2000/svg" xmlns:xlink="http://www.w3.org/1999/xlink">
    <!-- Generator: Sketch 41.2 (35397) - http://www.bohemiancoding.com/sketch -->
    <title>Shape</title>
    <desc>Created with Sketch.</desc>
    <defs></defs>
    <g id="Page-1" stroke="none" stroke-width="1" fill="none" fill-rule="evenodd">
        <g id="Sign-up-Page" transform="translate(-445.000000, -703.000000)" fill="#FF9800">
            <path d="M468.5,703 C455.5421,703 445,713.5421 445,726.5 C445,739.4579 455.5421,750 468.5,750 C474.4408,750 480.112525,747.77455 484.471187,743.733137 C485.066325,743.182063 485.100987,742.25205 484.549325,741.6575 C483.997662,741.06295 483.068825,741.028288 482.473687,741.579363 C478.660225,745.115525 473.697612,747.0625 468.5,747.0625 C457.161837,747.0625 447.9375,737.838162 447.9375,726.5 C447.9375,715.161838 457.161837,705.9375 468.5,705.9375 C479.838163,705.9375 489.0625,715.161838 489.0625,726.5 L489.0625,730.90625 C489.0625,733.33615 487.08615,735.3125 484.65625,735.3125 C482.22635,735.3125 480.25,733.33615 480.25,730.90625 L480.25,716.21875 C480.25,715.407412 479.592587,714.75 478.78125,714.75 C477.969913,714.75 477.3125,715.407412 477.3125,716.21875 L477.3125,718.7544 C475.15755,716.3057 472.010312,714.75 468.5,714.75 C462.02105,714.75 456.75,720.02105 456.75,726.5 C456.75,732.97895 462.02105,738.25 468.5,738.25 C472.306413,738.25 475.685713,736.422875 477.8342,733.608163 C478.913437,736.323 481.5613,738.25 484.65625,738.25 C488.705888,738.25 492,734.955888 492,730.90625 L492,726.5 C492,713.5421 481.4579,703 468.5,703 Z M468.5,735.3125 C463.640787,735.3125 459.6875,731.359213 459.6875,726.5 C459.6875,721.640787 463.640787,717.6875 468.5,717.6875 C473.359213,717.6875 477.3125,721.640787 477.3125,726.5 C477.3125,731.359213 473.359213,735.3125 468.5,735.3125 Z" id="Shape"></path>
        </g>
    </g>
</svg>